<svg xmlns="http://www.w3.org/2000/svg" viewBox="0 0 1024 1024"><defs><linearGradient x1="511.61" y1="1026.9" x2="511.61" gradientUnits="userSpaceOnUse" y2="-.324" id="a" gradientTransform="translate(.001)"><stop offset="0" stop-color="#096fd2"/><stop offset="1" stop-color="#0e8ee9"/></linearGradient><linearGradient x1="412.95" y1="648.08" x2="412.86" gradientUnits="userSpaceOnUse" y2="376.45" id="b" gradientTransform="translate(.001)"><stop offset="0" stop-color="#096fd2"/><stop offset="1" stop-color="#0e8ee9"/></linearGradient></defs><path style="fill:url(#a)" d="M917.001 0h-811.2A107.2 105.8 0 0 0 .001 106.3v811.4a107.2 105.8 0 0 0 106.4 106.3h811.2a107.2 105.8 0 0 0 106.4-106.3V106.3a107.2 105.8 0 0 0-107-106.3Zm-405.4 935.4A426.2 420.6 0 0 1 88.701 512a426.2 420.6 0 0 1 422.9-423.4 426.2 420.6 0 0 1 423.2 423.4 426.2 420.6 0 0 1-423.2 423.4z" class="cls-1"/><path style="fill:url(#b)" d="m904.201 512-293.5-135.7 23.58 86.95h-245.2l23.58-86.95-293.5 135.8 293.7 135.7-23.58-86.95h245.2l-23.58 86.95 293.3-135.7" class="cls-1"/></svg>
